<svg xmlns="http://www.w3.org/2000/svg">
  <symbol id="0" viewBox="-70,-130,1200,1200">
    <path d="M321.214785 391.8002l455.224775-2.045954-218.917083 550.361638zM373.386613 192.31968l346.789211 3.068931 61.378621 134.00999-450.10989-3.068931zM274.157842 322.237762l-274.157842-114.573427 147.308691-109.458541 175.952048 91.044955zM0 274.157842l259.836164 115.596404 279.272727 546.26973zM841.91009 388.731269l243.468531-125.826174-512.511489 670.04995zM836.795205 321.214785l-68.539461-141.170829 156.515485-86.953047 135.032967 113.55045zM368.271728 124.803197l-59.332667-15.344655-111.504496-62.401598 130.941059-47.056943 427.604396 0 129.918082 54.217782-124.803197 60.355644-41.942058 10.22977-350.881119 0z" fill="#fff"></path>
  </symbol>
  <symbol id="1" viewBox="0,0,1100,1100">
    <path d="M398.548233 261.13467q0-11.73639-1.956065-22.983763t-6.846227-22.005731q-4.890162-6.846227-9.291309-7.335244t-8.313276 1.467049q-5.868195 2.934097-10.758357 12.714422t-4.890162 27.384909q0.978032 122.254059-1.467049 248.420248t-4.401146 247.442216l-158.441261 0 0-485.104107q0-33.253104-15.64852-57.2149t-57.703916-23.961796l-17.604585 0q26.406877-30.319007 55.258835-44.011461t71.885387-13.692455q28.362942 0 52.813754 10.269341t42.055396 28.851958l3.91213-2.934097 4.890162-3.91213q25.428844-19.560649 52.813754-25.917861t49.879656-6.357211q27.384909 0 51.835721 10.269341t43.033429 28.851958l2.934097-2.934097 4.890162-3.91213q25.428844-19.560649 52.813754-25.917861t49.879656-6.357211q25.428844 0 48.412607 8.802292t40.099331 24.450812 27.873926 37.165234 10.758357 47.923591q1.956065 60.638013 0 147.682904 5.868195-16.626552 14.670487-34.231137t21.027698-32.275072 27.873926-23.961796 36.187202-9.291309q16.626552 0 39.610315 4.401146t44.011461 30.319007 35.698185 81.665712 14.670487 157.463228q0 74.330468-17.115568 133.012416t-43.033429 103.182426-56.236867 76.286533-56.725883 52.324737q6.846227 2.934097 13.692455 3.91213t14.670487 0.978032q18.582617 0 34.231137-5.868195t28.362942-13.692455q13.692455-8.802292 26.406877-20.538682l0 55.747851q-5.868195 15.64852-23.472779 27.384909-14.670487 10.758357-42.055396 19.071633t-74.330468 8.313276q-51.835721 0-89.978988-16.626552-28.362942 9.780325-57.703916 16.626552t-53.791786 11.73639q-28.362942 5.868195-55.747851 9.780325l0-60.638013q13.692455 0 30.319007-3.91213 13.692455-2.934097 32.764088-7.82426t41.56638-14.670487q-13.692455-18.582617-22.494747-41.56638t-14.181471-47.434575-8.313276-50.368672-3.91213-51.346705l0-16.626552 0-468.477555q0-11.73639-1.956065-22.983763t-6.846227-22.005731q-3.91213-6.846227-8.313276-7.82426t-8.313276 0.978032q-4.890162 2.934097-10.269341 11.247373t-6.357211 23.961796q0.978032 55.747851 0.489016 120.787011t-1.467049 131.545368-2.445081 131.056351-2.445081 118.341929l-157.463228 0 0-485.104107zM765.310411 542.808023l0 3.91213 0 16.626552q-0.978032 54.769819-1.956065 101.715377t-0.978032 81.176695q0 32.275072 2.445081 58.192932t7.335244 45.47851q37.165234-42.055396 61.616046-107.094556t24.450812-159.908309q0-89.978988-6.846227-133.990449t-16.626552-55.747851-21.516714 1.956065-22.494747 39.121299-17.604585 56.236867-7.82426 52.324737z" fill="#fff"></path>
  </symbol>
  <symbol id="2" viewBox="-100,-100,1200,1200">
    <path d="M355.064966 158.906269c0 87.81145-71.144689 158.954184-158.959855 158.954184-87.76823 0-158.914874-71.143711-158.914874-158.954184 0-87.764514 71.146645-158.906269 158.914874-158.906269C283.920179 0 355.064966 71.141756 355.064966 158.906269zM569.619936 79.477092c0 43.903818-35.572882 79.476114-79.480417 79.476114s-79.479439-35.571318-79.479439-79.476114c0-43.905774 35.571905-79.477092 79.479439-79.477092S569.619936 35.571318 569.619936 79.477092zM800.050885 99.310894c0 43.905774-35.571905 79.477092-79.479439 79.477092s-79.480417-35.571318-79.480417-79.477092 35.572882-79.477092 79.480417-79.477092C764.479078 19.832922 800.050885 55.405217 800.050885 99.310894zM986.808884 202.626351c0 43.905774-35.572882 79.477092-79.480417 79.477092-43.907534 0-79.479439-35.571318-79.479439-79.477092s35.571905-79.477092 79.479439-79.477092C951.235024 123.149259 986.808884 158.720675 986.808884 202.626351zM284.478234 407.254935c0 0 50.658275-140.050605 244.353489-163.88897 0 0 299.017305-20.858875 350.513983 273.953799 25.142907 144.055071 14.667168 456.095496-216.417567 503.585458-55.780807 11.45456-217.534558-2.79282-196.674802-148.802209 7.356515-51.635238 55.780807-135.674754 0-208.585233C427.514294 612.860776 233.81996 597.961663 284.478234 407.254935" fill="#fff"></path>
  </symbol>
  <symbol id="3" viewBox="0,-100,1000,1000">
    <path d="M612.352 88.064q-27.648 33.792-52.224 62.464-20.48 25.6-40.96 50.176t-29.696 36.864q-7.168 9.216-7.68 13.824t2.56 5.12 8.704-1.536 10.752-7.168 26.624-25.088 45.056-43.52q27.648-26.624 62.464-60.416l21.504 64.512q49.152-10.24 97.28-12.288 40.96-2.048 84.992 5.12t76.8 31.744q52.224 39.936 53.76 95.744t-32.768 116.224-98.304 119.808-143.872 107.52q-51.2 30.72-111.104 55.296t-121.344 40.448-120.832 23.552-109.568 5.632-87.552-15.36-54.784-37.888q-27.648-39.936-29.184-81.408t12.8-80.384 38.912-73.728 49.664-61.952 45.568-44.032 24.576-19.968l-28.672-99.328q48.128 6.144 89.088 11.264 17.408 2.048 35.328 4.608t34.304 4.096 29.184 3.072 19.968 1.536q11.264 1.024 15.872-1.024t4.608-5.12-4.096-6.144-9.216-4.096q-3.072-1.024-13.824-3.072t-26.112-5.632-33.28-7.68-36.352-8.192q-43.008-10.24-97.28-22.528l124.928-161.792q21.504 39.936 39.936 74.752 16.384 29.696 32.256 58.88t24.064 43.52q11.264 20.48 16.384 14.336t0-21.504q-2.048-4.096-5.632-14.336t-8.192-24.064-10.24-29.696-11.776-31.232q-13.312-36.864-30.72-80.896zM187.392 644.096q17.408 20.48 61.952 25.088t102.4-3.584 123.904-29.184 126.464-52.736q68.608-35.84 121.856-76.288t86.528-79.36 45.568-73.216 0-58.88q-14.336-26.624-42.496-34.816t-56.832-8.192q-33.792 0-71.68 9.216l20.48 49.152q-44.032-7.168-80.896-12.288-31.744-5.12-62.464-9.728t-43.008-6.656q-17.408-3.072-18.944 5.12t8.704 11.264q3.072 1.024 13.312 4.096t24.576 7.168 31.744 9.216l34.816 10.24q40.96 11.264 92.16 26.624l-124.928 160.768q-21.504-48.128-38.912-89.088-15.36-34.816-28.672-66.048t-17.408-40.448q-7.168-13.312-15.36-9.728t-6.144 16.896q0 2.048 3.072 12.288t7.68 25.088 9.728 33.28 11.264 36.864q13.312 44.032 29.696 98.304l-221.184-41.984q32.768-40.96 60.416-75.776 23.552-29.696 45.056-57.344t27.648-37.888q5.12-7.168 4.608-11.264t-4.096-5.632-8.704 0-8.192 4.608q-1.024 1.024-8.192 8.704t-17.92 18.944-24.576 25.088-27.136 28.16q-32.768 33.792-73.728 75.776l-15.36-40.96q-48.128 53.248-69.12 91.136t-24.576 64 3.072 41.472 13.824 22.528z" fill="#fff"></path>
  </symbol>
  <symbol id="4" viewBox="-50,0,1100,1100">
    <path d="M92.16 146.432q19.456-5.12 46.08-3.072 22.528 2.048 54.272 10.24t74.752 29.696q28.672 15.36 52.736 37.376t44.544 47.104 38.912 49.664 36.864 44.544 37.376 32.768 41.472 12.8 41.984-12.8 37.888-32.768 36.864-44.544 38.912-49.664 44.544-47.104 52.736-37.376q41.984-21.504 74.24-29.696t54.784-10.24q26.624-2.048 46.08 3.072l0 161.792q-21.504-1.024-40.96 2.048-17.408 2.048-36.864 7.168t-33.792 16.384q-11.264 8.192-26.624 26.112t-33.28 39.936-37.888 45.056-38.4 41.472q55.296 39.936 88.576 100.352t33.28 131.072q0 60.416-24.064 113.152t-65.536 91.648-97.792 61.952-119.808 23.04-119.808-23.04-97.792-61.952-65.536-91.648-24.064-113.152q0-73.728 34.816-135.168t93.184-100.352q-18.432-18.432-36.864-40.96t-36.352-44.032-32.768-38.4-25.088-25.088q-15.36-11.264-34.304-16.384t-36.352-7.168q-19.456-3.072-40.96-2.048l0-161.792zM374.784 716.8q0 28.672 10.752 53.76t29.696 44.032 44.544 29.696 54.272 10.752 54.272-10.752 45.056-29.696 30.208-44.032 10.752-53.76-10.752-53.76-30.208-43.52-45.056-29.184-54.272-10.752-54.272 10.752-44.544 29.184-29.696 43.52-10.752 53.76z" fill="#fff"></path>
  </symbol>
  <symbol id="5" viewBox="0,50,1000,1000">
    <path d="M113.664 354.304q27.648-46.08 74.24-84.48t106.496-66.048 129.536-43.008 145.408-15.36q100.352 0 189.44 25.088t171.008 84.48l1.024 176.128q-55.296-41.984-116.736-72.192t-125.952-44.544-131.584-10.752-132.608 29.184q23.552 26.624 37.888 60.928t14.336 73.216q0 40.96-15.872 77.312t-42.496 62.976-62.976 42.496-77.312 15.872-77.312-15.872-62.976-42.496-42.496-62.976-15.872-77.312q0-63.488 34.816-112.64zM276.48 505.856q17.408 0 29.184-11.776t11.776-29.184-11.776-29.184-29.184-11.776-29.184 11.776-11.776 29.184 11.776 29.184 29.184 11.776zM751.616 592.896q-17.408 0-29.184 11.776t-11.776 29.184 11.776 29.184 29.184 11.776 29.184-11.776 11.776-29.184-11.776-29.184-29.184-11.776zM914.432 744.448q-27.648 46.08-74.24 84.48t-106.496 66.048-130.048 43.008-144.896 15.36q-100.352 0-189.44-25.088t-171.008-84.48l-1.024-176.128q55.296 41.984 116.736 72.192t125.952 44.544 131.072 10.752 133.12-29.184q-23.552-26.624-37.888-60.928t-14.336-73.216q0-40.96 15.872-77.312t42.496-62.976 62.976-42.496 77.312-15.872 77.312 15.872 62.976 42.496 42.496 62.976 15.872 77.312q0 31.744-9.216 60.416t-25.6 52.224z" fill="#fff"></path>
  </symbol>
  <symbol id="6" viewBox="-100,-100,1200,1200">
    <path d="M193.536 915.456l473.088 0 0 52.224q0 20.48-15.36 38.4t-45.056 17.92l-351.232 0q-26.624 0-44.032-16.384t-17.408-39.936l0-52.224zM829.44 488.448q34.816 0 67.584 4.608t55.296 19.968 32.256 44.032 0.512 77.824q-10.24 51.2-30.208 77.824t-46.08 38.4-56.32 11.776-61.952-2.048q-11.264 18.432-25.6 33.28t-30.72 28.672-33.28 28.672-34.304 33.28l-473.088 0q-22.528-31.744-50.176-53.248t-51.2-49.664-39.936-72.192-16.384-119.808l0-107.52q0-20.48 7.168-30.72t16.384-15.36q11.264-5.12 24.576-7.168l697.344 0q12.288 2.048 23.552 7.168 9.216 5.12 16.896 15.36t7.68 30.72l0 6.144zM251.904 349.184q-2.048 15.36-13.312 23.04t-24.064 7.68-23.552-7.68-10.752-23.04q0-35.84 3.584-58.88t6.656-43.52q5.12-29.696 17.92-50.176t26.624-37.376 25.088-32.768 14.336-37.376q4.096-30.72 5.632-48.64t5.12-26.624 10.752-10.752 23.552-2.048 23.552 11.776 8.192 29.696-2.048 37.888-6.144 35.328q-2.048 14.336-9.728 29.184t-17.92 30.72-20.48 31.232-18.432 29.696q-9.216 15.36-14.336 38.4t-10.24 74.24zM445.44 349.184q-2.048 15.36-13.312 23.04t-24.064 7.68-23.552-7.68-10.752-23.04q0-35.84 3.584-58.88t7.68-43.52q5.12-29.696 17.92-50.176t26.112-37.376 24.576-32.768 14.336-37.376q4.096-30.72 6.144-48.64t5.632-26.624 10.752-10.752 23.552-2.048 23.04 11.776 7.68 29.696-1.536 37.888-5.632 35.328q-3.072 14.336-10.752 29.184t-17.408 30.72-20.48 31.232-18.944 29.696q-9.216 15.36-14.336 38.4t-10.24 74.24zM640 349.184q-2.048 15.36-13.312 23.04t-24.064 7.68-23.552-7.68-10.752-23.04q0-35.84 3.072-58.88t7.168-43.52q5.12-29.696 17.92-50.176t26.624-37.376 25.088-32.768 14.336-37.376q4.096-30.72 5.632-48.64t5.12-26.624 10.752-10.752 23.552-2.048 23.552 11.776 8.192 29.696-2.048 37.888-6.144 35.328q-3.072 14.336-10.752 29.184t-17.408 30.72-19.968 31.232-18.432 29.696q-5.12 8.192-8.704 16.896t-6.144 21.504-4.608 30.72-5.12 43.52z" fill="#fff"></path>
  </symbol>
  <symbol id="7" viewBox="-20,0,1000,1000">
    <path d="M334.848 343.04q22.528-28.672 49.152-50.176 22.528-18.432 50.176-33.792t57.344-13.312q43.008 3.072 71.68 20.48t45.568 43.008 23.04 58.368 4.096 66.56-13.312 64.512-27.136 57.856-34.304 49.664-36.864 40.96q-27.648 28.672-58.368 54.784t-58.368 46.08-49.664 31.744-32.256 11.776q-12.288 0-32.256-12.288t-44.544-32.256-52.224-46.08-55.296-52.736q-17.408-17.408-38.912-39.424t-40.448-48.128-32.256-57.344-14.336-67.072q-2.048-34.816 7.168-66.048t27.136-55.808 44.032-41.472 58.88-24.064 65.024 6.656 58.88 33.28q30.72 22.528 58.368 54.272zM611.328 245.76q13.312 0 25.6 1.024 11.264 1.024 23.552 3.072t21.504 6.144 19.456 10.752 19.456 12.8l20.48 16.384q6.144-6.144 13.312-11.264 13.312-10.24 35.84-23.552 12.288-7.168 28.672-10.752t33.28-2.56 33.28 6.656 27.648 17.92q31.744 33.792 37.888 66.048t-1.536 60.416-23.04 49.664-27.648 33.792q-23.552 23.552-44.544 40.96t-51.712 39.936q-16.384 11.264-34.304 19.456t-27.136 8.192q-9.216 1.024-19.968-7.68t-26.112-19.968q-7.168-5.12-13.312-12.288l-12.288-11.264-12.288-12.288q11.264-20.48 18.432-46.08 6.144-21.504 9.216-50.688t-3.072-62.976q-7.168-31.744-18.944-55.296t-23.04-37.888q-13.312-17.408-28.672-28.672z" fill="#fff"></path>
  </symbol>
  <symbol id="8" viewBox="-50,0,1100,1100">
    <path d="M723.306228 503.293016q24.012071 0 48.984626 11.525794t44.662453 33.6169 32.176176 54.267281 12.486277 73.476938q0 43.221729-22.091106 79.239836t-57.14873 58.109213-78.279353 27.373761-86.443457-13.927001q-17.288691 39.379797-38.419314 76.838628t-49.945108 65.793076-65.793076 43.70197-85.002733 8.644346q-8.644346-0.960483-15.367726-2.401207t-11.525794-3.36169q-5.762897-1.920966-9.604829-3.841931l16.328209-138.309531q16.328209 1.920966 34.577383-2.881449t34.097141-12.486277 27.373761-17.288691 14.407243-18.249174q7.683863-21.130623 16.80845-50.42535t21.610864-61.951144q-13.44676-25.933037-23.53183-57.628971t-17.768933-71.075731q-3.841931-20.17014-6.243139-47.543901t-3.841931-55.227764-2.881449-54.747523-3.841931-48.024143-6.243139-33.136659-9.604829-10.08507q-11.525794-1.920966-19.689899 22.091106t-13.927001 60.030178-9.124587 75.397904-4.322173 67.2338l-128.704703 0q-1.920966-73.95718-4.322173-117.65915t-6.243139-70.59549-10.08507-43.70197-17.768933-36.97859q-4.802414-8.644346-13.927001-14.407243t-17.768933-8.644346q-10.565311-3.841931-22.091106-4.802414l0-129.665186q26.89352 0 49.464867 8.644346t41.300763 23.53183 33.6169 34.577383 26.413279 40.820521l4.802414-10.565311q5.762897-11.525794 15.367726-27.854003t24.492313-31.215693 35.057624-25.452796 47.06366-10.565311q35.537866 0 59.549937 19.209657t39.860039 51.385833 25.452796 74.437421 15.847967 88.364423 11.045553 93.166837 11.525794 89.324906q24.012071-21.130623 52.826557-33.6169t64.352351-12.486277zM719.464297 697.310553q4.802414-0.960483 9.604829-8.164104t6.243139-14.887484-3.36169-14.407243-20.17014-6.72338q-10.565311 1.920966-19.689899 12.966519t-18.729416 29.294727q19.209657 8.644346 46.103177 1.920966z" fill="#fff"></path>
  </symbol>
  <symbol id="9" viewBox="0,0,1000,1000">
    <path d="M331.776 507.904l-159.744 0q-48.128-37.888-72.704-90.624t-27.648-105.984 13.824-101.888 51.712-78.848 86.016-35.84 115.712 25.088q61.44 29.696 102.912 90.112t69.12 138.24q26.624-77.824 68.096-138.24t102.912-90.112q65.536-30.72 116.736-25.088t86.016 35.84 51.712 78.848 13.824 101.888-27.648 105.984-72.704 90.624l-160.768 0q13.312-23.552 24.576-43.008 9.216-17.408 17.92-32.256t10.752-19.968q3.072-7.168 11.264-30.208t11.776-45.056-2.56-33.28-32.768 6.144q-35.84 23.552-58.88 72.192t-37.376 104.96-20.992 111.104-10.752 91.648-7.168 77.312-5.12 73.216q-3.072 39.936-4.096 76.8l-9.216 0-131.072 0-9.216 0q-1.024-36.864-4.096-76.8-2.048-32.768-5.632-73.216t-7.68-77.312-10.752-91.648-20.992-111.104-37.376-104.96-58.88-72.192q-26.624-17.408-32.768-6.144t-2.56 33.28 11.776 45.056 11.264 30.208q2.048 5.12 10.752 19.968t17.92 32.256q11.264 19.456 24.576 43.008z" fill="#fff"></path>
  </symbol>
  <symbol id="10" viewBox="-50,-50,1100,1100">
    <path d="M811.008 770.048q-9.216 1.024-19.456 3.584t-18.432 5.632q-10.24 4.096-19.456 9.216-2.048-11.264 1.024-22.528 2.048-10.24 8.192-21.504t20.48-22.528q25.6-17.408 60.928-21.504t66.048 8.192 48.128 42.496 6.144 82.432q-9.216 41.984-37.888 76.288t-76.288 52.736-112.128 17.408-144.384-28.672q-55.296-19.456-87.04-48.64t-47.616-59.904-18.944-57.856-1.024-42.496 12.8-37.888 22.016-43.008q13.312-24.576 29.696-50.176 8.192-13.312 14.336-25.6 5.12-11.264 8.192-22.528t0-21.504q-10.24-26.624-25.6-40.96t-29.696-21.504q-17.408-7.168-35.84-8.192-25.6-1.024-47.104-6.144-18.432-5.12-36.352-13.312t-26.112-25.6q-9.216-17.408-7.68-35.84t7.168-36.352 11.776-34.304 6.144-28.672q0-32.768-34.816-46.08-45.056-11.264-67.584-9.216t-31.744 8.704-9.216 12.288 0 1.536q0 14.336 3.584 36.864t-3.584 43.008q-5.12 12.288-13.824 23.04t-14.848 19.968q-8.192 13.312-13.824 23.04t-4.608 12.8q2.048 4.096 9.728 5.632t11.776 3.584q5.12 3.072 6.656 9.728t7.68 11.776q10.24 10.24 12.288 17.408 1.024 4.096 0 7.168 0 8.192 1.024 19.456 1.024 9.216 2.56 20.992t4.608 23.04q6.144 26.624 14.336 37.376t19.968 13.312 28.16 0.512 39.936-2.048q17.408 1.024 35.84 1.024t32.768 8.192 22.528 22.528 13.312 28.672q4.096 17.408 6.144 35.84 3.072 23.552 3.072 47.104 0 20.48-2.048 44.544t-10.24 47.616q-17.408 48.128-51.2 71.68t-72.704 30.72q-40.96 8.192-77.824 2.048t-66.56-20.48-48.64-34.816-23.04-40.96q-3.072-16.384-0.512-32.256t7.68-30.72 12.288-28.16 12.288-25.6q9.216-19.456 11.264-34.304t0-25.088q-2.048-11.264-8.192-20.48-9.216-10.24-19.456-21.504-8.192-10.24-17.408-22.016t-15.36-26.112q-20.48-41.984-21.504-77.824 0-15.36 0.512-37.376t7.68-41.472q6.144-16.384 30.208-43.52t53.76-70.144q6.144-12.288 10.752-25.6t7.168-24.576 3.584-19.456 1.024-11.264q0-10.24-1.024-22.528t-2.048-25.6q0-6.144-1.024-20.48t2.56-31.744 12.8-35.328 28.672-32.256q15.36-11.264 36.352-15.872t39.424-5.632q21.504-1.024 45.056 1.024 19.456-7.168 40.96-11.264 18.432-4.096 43.008-7.168t51.2-3.072q89.088 2.048 149.504 27.136t99.328 61.44 59.392 78.848 29.696 78.848 10.752 61.44 1.536 26.112q1.024 17.408 12.288 31.744t26.112 29.184 30.72 30.208 27.136 33.792q21.504 38.912 23.552 69.632t-8.192 54.272-28.672 40.448-37.376 28.16-34.816 17.408-19.968 8.192q-33.792 15.36-51.712 33.792t-24.064 36.864-2.56 35.84 14.848 29.696q7.168 9.216 18.432 15.36t23.04 9.216 22.528 3.584 17.92-1.536q16.384-3.072 27.136-14.848t12.8-25.088-5.632-22.528-27.136-8.192z" fill="#fff"></path>
  </symbol>
  <symbol id="11" viewBox="0,0,1000,1000">
    <path d="M543.744 648.192q0-30.72-11.776-58.368t-31.744-47.616-47.104-31.744-57.856-11.776-58.368 11.776-47.616 31.744-31.744 47.616-11.776 58.368 11.776 57.856 31.744 47.104 47.616 31.744 58.368 11.776 57.856-11.776 47.104-31.744 31.744-47.104 11.776-57.856zM736.256 851.968q0-22.528-8.704-43.008t-24.064-35.328-35.84-23.552-43.008-8.704q-23.552 0-43.52 8.704t-34.816 23.552-23.552 35.328-8.704 43.008q0 23.552 8.704 43.52t23.552 35.328 34.816 24.064 43.52 8.704q22.528 0 43.008-8.704t35.84-24.064 24.064-35.328 8.704-43.52zM545.792 474.112q-45.056 0-83.968-16.896t-68.096-46.08-46.08-68.096-16.896-82.944 16.896-83.456 46.08-68.096 68.096-45.568 83.968-16.896q44.032 0 82.944 16.896t68.096 45.568 46.08 68.096 16.896 83.456-16.896 82.944-46.08 68.096-68.096 46.08-82.944 16.896zM435.2 164.864q-17.408 0-29.696 12.288t-12.288 29.696 12.288 29.696 29.696 12.288 29.696-12.288 12.288-29.696-12.288-29.696-29.696-12.288z" fill="#fff"></path>
  </symbol>
  <symbol id="12" viewBox="0,100,1000,1000">
    <path d="M538.624 948.224l-146.432-145.408-182.272 182.272-105.472-104.448 183.296-183.296q-41.984-40.96-68.608-68.608l-44.032-43.008-23.552-24.576q-8.192-7.168-9.216-9.216l104.448-104.448 145.408 145.408 233.472-233.472q-62.464-15.36-101.376-25.088t-60.928-15.36-30.208-7.68l-10.24-2.048q-2.048-1.024-0.512-0.512t-0.512-0.512l35.84-143.36 371.712 92.16 91.136 370.688-144.384 35.84-49.152-195.584-229.376 229.376 145.408 146.432z" fill="#fff"></path>
  </symbol>
  <symbol id="13" viewBox="0,100,1000,1000">
    <path d="M353.171846 681.553724q18.094347 0 30.157244-12.565519t12.062898-29.654624-12.062898-29.654624-30.157244-12.565519q-17.089105 0-29.152003 12.565519t-12.062898 29.654624 12.062898 29.654624 29.152003 12.565519zM151.118309 639.333581q0-41.214901 15.581243-77.403594t42.722763-63.832834 63.330213-43.728004 77.403594-16.083864q-3.015724-24.125796-3.015724-51.267315 2.010483-65.340696 26.638899-111.581804t62.827593-73.885249 85.948147-38.199176 95.497941-4.523587 90.974354 28.146761 72.880007 58.304006 41.214901 86.450767-3.518345 113.592287q-23.120554 94.492699-59.309247 181.948708t-73.382628 168.880569q-17.089105 38.199176-15.581243 56.796144t11.560277 23.623175 21.612692-1.005241 14.576001-18.094347l154.807188 3.015724q-1.005241 48.251591-21.612692 82.429801t-52.775178 53.780419-71.874766 25.131037-77.403594-3.015724-69.361662-30.659865-49.256833-58.304006-16.083864-85.948147 29.654624-112.084425q38.199176-82.429801 68.859041-162.346499t54.785661-160.336016q9.047173-30.157244-5.026207-53.780419t-38.199176-34.680831-52.272557-8.544553-46.743729 22.617933-22.115313 60.81711 21.612692 106.052976q11.057656 28.146761 19.099588 60.81711t8.041932 66.848558l0 10.052415q0 42.220142-16.083864 78.911456t-43.225384 63.832834-63.832834 42.722763-77.906215 15.581243-77.906215-15.581243-63.832834-42.722763-43.225384-63.832834-16.083864-78.911456z" fill="#fff"></path>
  </symbol>
  <symbol id="14" viewBox="0,30,1000,1000">
    <path d="M564.224 473.088q10.24-114.688 54.272-208.896t112.64-157.696l167.936 0q-68.608 63.488-107.52 157.696t-47.104 208.896l134.144 0 0 151.552-131.072 0q11.264 105.472 50.688 192t103.936 144.896l-166.912 0q-64.512-58.368-109.056-144.896t-58.88-192l-109.568 0q-14.336 105.472-58.368 192t-109.568 144.896l-166.912 0q64.512-58.368 103.936-144.896t50.688-192l-142.336 0 0-151.552 146.432 0q-8.192-114.688-47.104-208.896t-107.52-157.696l166.912 0q68.608 63.488 113.152 157.696t53.76 208.896l103.424 0z" fill="#fff"></path>
  </symbol>
  <symbol id="15" viewBox="0,50,1000,1000">
    <path d="M143.36 817.152q63.488-19.456 126.976-29.696l0-424.96q-63.488-10.24-126.976-29.696l0-159.744q93.184 27.648 180.736 39.936t185.856 12.288q104.448 0 197.12-13.824t192-45.568l0 159.744q-34.816 11.264-69.12 19.968t-70.144 15.872l0 427.008q35.84 7.168 70.144 15.872t69.12 19.968l0 159.744q-99.328-31.744-192-45.568t-197.12-13.824q-98.304 0-185.856 12.288t-180.736 39.936l0-159.744zM509.952 766.976q13.312 0 34.816 0.512t33.792 0.512l0-386.048-68.608 0-59.392 0 0 386.048q11.264 0 30.208-0.512t29.184-0.512z" fill="#fff"></path>
  </symbol>
  <symbol id="16" viewBox="0,50,1000,1000">
    <path d="M76.8 524.288l0-169.984 279.552-184.32 69.632 134.144 175.104-137.216 71.68 135.168 176.128-132.096 95.232 141.312-3.072 222.208-134.144-154.624-184.32 134.144-68.608-137.216-184.32 129.024-77.824-132.096zM76.8 907.264l0-168.96 279.552-184.32 69.632 134.144 175.104-137.216 71.68 135.168 176.128-132.096 95.232 140.288-3.072 223.232-134.144-155.648-184.32 135.168-68.608-137.216-184.32 129.024-77.824-133.12z" fill="#fff"></path>
  </symbol>
  <symbol id="17" viewBox="-120,0,1100,1100">
    <path d="M440.064 657.408q7.168 8.192 11.264 12.8t5.12 8.704-1.536 9.728-6.656 15.872q-9.216 21.504-18.944 38.4t-32.256 15.872q-6.144-1.024-11.776 3.072t-8.704 9.216q-5.12 10.24-7.68 26.112t-0.512 33.28l-346.112 0q-14.336 0-20.48-11.264t4.096-28.672q16.384-29.696 38.4-65.536t41.472-77.312 32.768-88.576 13.312-98.304q1.024-98.304 40.96-157.184t104.448-80.384q-16.384-26.624-16.384-53.248 0-39.936 28.16-67.584t68.096-27.648q19.456 0 36.352 7.168t29.696 20.48 20.48 30.72 7.68 36.864q0 26.624-14.336 52.224 67.584 20.48 108.544 80.896t41.984 157.696q0 23.552 4.096 47.104t10.24 46.08q-4.096 4.096-7.68 7.168t-9.728 5.12q-11.264 4.096-20.48 10.24t-17.408 10.24-15.36 4.096-14.336-8.192q-5.12-5.12-9.216-7.68t-11.264-0.512q-8.192 1.024-16.896 6.656t-16.896 13.312-14.848 16.384-9.728 15.872q-7.168 19.456 2.048 30.72zM358.144 200.704q12.288-1.024 20.992-9.728t8.704-20.992q0-13.312-9.216-22.528t-21.504-9.216q-14.336 0-23.04 9.216t-8.704 22.528q0 12.288 8.704 20.992t22.016 9.728l2.048 0zM435.968 894.976q2.048 2.048 2.048 3.072 8.192 21.504 1.536 41.472t-20.992 31.232q-1.024 1.024-1.024 1.536t-2.048 1.536q-12.288 7.168-26.624 11.264t-28.672 4.096q-26.624 0-51.2-14.848t-43.008-32.256-28.672-32.256-6.144-14.848l204.8 0zM891.648 776.192q4.096 9.216 4.096 23.04t-4.096 27.136q-2.048 7.168-6.656 9.728t-8.704 2.56q-16.384-1.024-30.208 6.656t-19.968 22.016q-5.12 14.336-2.56 28.16t13.824 24.064q1.024 3.072 3.072 6.144 3.072 5.12 3.072 11.264-2.048 11.264-15.872 25.088t-25.088 14.848q-8.192 0-11.776-1.536t-7.68-5.632q-6.144-7.168-20.992-12.8t-29.184-0.512-20.992 17.92-6.656 27.136q0 12.288-8.192 17.408t-25.6 4.608-28.672-5.632q-8.192-3.072-8.192-14.336 1.024-14.336-6.144-28.672t-21.504-20.48-30.208-2.048-25.088 15.36q-7.168 8.192-21.504 3.072-10.24-5.12-23.04-19.456t-14.848-25.6q-1.024-3.072 0.512-7.168t8.704-9.216q8.192-8.192 12.288-20.48t-1.024-26.624q-3.072-9.216-10.24-14.336t-15.36-8.192q-9.216-4.096-19.456-5.12-8.192-2.048-11.264-5.12-7.168-8.192-6.656-28.16t6.656-30.208q2.048-4.096 5.632-6.656t6.656-1.536q15.36 0 30.208-6.656t20.992-20.992 1.024-29.696-15.36-25.6q-3.072-2.048-3.072-8.704t2.048-11.776q4.096-10.24 15.36-22.016t22.528-12.8q7.168-1.024 13.312 6.144 10.24 10.24 24.576 13.824t28.672-1.536q14.336-6.144 21.504-22.016t8.192-22.016q1.024-3.072 1.536-6.656t2.56-5.632q11.264-9.216 31.232-7.68t28.16 5.632q5.12 2.048 6.656 7.168t1.536 9.216q-1.024 13.312 6.144 26.112t21.504 18.944 28.672 3.072 23.552-13.312q3.072-3.072 8.704-5.12t9.728 0q11.264 5.12 23.552 17.408t14.336 27.648q0 3.072-2.048 6.656t-4.096 4.608q-11.264 9.216-14.848 24.064t1.536 29.184q6.144 14.336 19.968 20.992t30.208 6.656q4.096-1.024 8.192 1.024t6.144 7.168zM737.024 832.512q5.12-13.312 5.12-27.648t-5.632-26.624-14.848-22.528-22.528-16.384q-27.648-11.264-54.784-0.512t-40.448 37.376q-11.264 26.624-1.536 55.296t39.424 40.96 56.32 0 38.912-39.936z" fill="#fff"></path>
  </symbol>
  <symbol id="18" viewBox="0,0,1000,1000">
    <path d="M113.664 743.424l796.672 0 0 148.48-796.672 0 0-148.48zM578.56 622.592l0-91.136q32.768-18.432 52.736-50.688t19.968-71.168q0-28.672-10.752-53.76t-29.696-43.52-44.544-29.184-54.272-10.752q-29.696 0-54.784 10.752t-44.544 29.184-30.208 43.52-10.752 53.76q0 38.912 19.456 70.656t51.2 49.152l0 93.184 0 57.344-328.704 0 0-149.504 118.784 0q-13.312-27.648-20.48-57.856t-7.168-62.976q0-59.392 24.064-112.64t65.536-92.16 97.792-61.952 119.808-23.04 119.808 23.04 97.792 61.952 65.536 92.16 24.064 112.64q0 32.768-7.168 62.976t-20.48 57.856l118.784 0 0 149.504-331.776 0 0-57.344z" fill="#fff"></path>
  </symbol>
  <symbol id="19" viewBox="0,0,1100,1100">
    <path d="M790.733591 1022.023166q-41.513514 0-72.15444-8.895753-22.733591-6.918919-42.996139-19.76834t-42.996139-45.467181q-1.976834-2.965251-4.447876-5.930502t-4.447876-6.918919l-1.976834-2.965251q-21.745174-37.559846-29.158301-84.015444t-9.389961-92.911197l-0.988417-16.803089 0-474.440154q0-10.872587-1.482625-22.733591t-6.42471-22.733591q-7.907336-10.872587-17.791506-5.930502-4.942085 1.976834-9.88417 10.378378t-6.918919 24.216216q0.988417 56.339768 0.494208 122.563707t-1.482625 133.436293-1.976834 132.447876-1.976834 119.598456l-160.123552 0 0-491.243243q0-10.872587-1.976834-22.733591t-6.918919-22.733591q-6.918919-11.861004-17.791506-5.930502-4.942085 2.965251-10.378378 12.849421t-5.436293 27.675676q0.988417 123.552124-1.482625 251.057915t-4.447876 251.057915l-160.123552 0 0-491.243243q0-32.617761-15.814672-57.328185t-58.316602-24.710425l-17.791506 0q26.687259-30.640927 55.84556-44.478764t73.637066-13.837838q27.675676 0 52.3861 10.378378t42.501931 29.158301l3.953668-2.965251 4.942085-3.953668q25.698842-19.76834 53.374517-26.19305t50.409266-6.42471q28.664093 0 53.374517 10.378378t42.501931 29.158301l3.953668-2.965251 3.953668-3.953668q25.698842-19.76834 53.868726-26.19305t50.903475-6.42471q24.710425 0 47.938224 8.895753t41.019305 24.710425 28.664093 38.054054 10.872587 48.926641l0 61.281853q0 32.617761-0.494208 81.544402t-0.988417 103.783784-0.494208 111.196911-0.494208 102.301158 0 78.084942 1.482625 38.054054l1.976834 11.861004 2.965251 14.826255q7.907336 28.664093 17.297297 47.444015t21.745174 29.158301 28.169884 13.837838 35.583012 3.459459q16.803089-1.976834 32.617761-7.413127t27.675676-12.355212l-33.606178-61.281853 149.250965 4.942085-59.305019 159.135135q0-0.988417-8.401544-15.814672t-19.274131-36.571429q-5.930502 6.918919-16.30888 15.814672t-28.169884 16.30888-44.478764 12.849421-64.247104 5.436293z" fill="#fff"></path>
  </symbol>
  <symbol id="20" viewBox="0,0,1000,1000">
    <path d="M704.161433 865.240183c-5.714382 0-11.450254-1.36509-16.706175-4.128017l-190.976395-100.391455-190.976395 100.391455c-12.092917 6.372128-26.770814 5.298679-37.821961-2.730181-11.062404-8.035-16.598723-21.654182-14.289024-35.128055l36.467047-212.643028L135.356345 460.009905c-9.788335-9.540284-13.312749-23.812335-9.08734-36.81651 4.225409-12.999059 15.465876-22.473851 28.993528-24.443715l213.520777-31.026644 95.485639-193.471386c6.054134-12.259208 18.535923-20.018939 32.209914-20.018939 13.673991 0 26.154758 7.759731 32.209914 20.018939l95.485639 193.471386 213.520777 31.026644c13.527652 1.969864 24.768119 11.444657 28.993528 24.443715 4.225409 13.004175 0.700994 27.276227-9.08734 36.81651L703.098174 610.610902l36.467047 212.643028c2.309699 13.473873-3.22662 27.093055-14.289024 35.128055C719.02251 862.925465 711.608345 865.240183 704.161433 865.240183zM496.478863 684.22755c5.742012 0 11.483001 1.376347 16.712315 4.128017l143.273998 75.31636-27.358216-159.53139c-2.001671-11.650341 1.861472-23.537066 10.328663-31.787984l115.914758-112.985284L595.158375 436.095239c-11.698927-1.699712-21.811664-9.049097-27.046095-19.646456l-71.63444-145.145751-71.63444 145.145751c-5.234431 10.597359-15.347167 17.946744-27.046095 19.646456l-160.190983 23.273053 115.914758 112.985284c8.466168 8.250918 12.330334 20.137643 10.328663 31.787984l-27.358216 159.53139 143.273998-75.31636C484.995863 685.603897 490.736851 684.22755 496.478863 684.22755z" fill="#fff"></path>
  </symbol>
  <symbol id="21" viewBox="-50,0,1100,1100">
    <path d="M889.6 192 876.8 377.6 1024 492.8 844.8 544 780.8 716.8 684.8 563.2 499.2 556.8 614.4 409.6 563.2 230.4 736 294.4ZM396.8 659.2 441.6 761.6 550.4 774.4 473.6 851.2 486.4 960 396.8 908.8 300.8 960 320 851.2 243.2 774.4 345.6 761.6ZM134.4 403.2 179.2 486.4 268.8 505.6 204.8 569.6 217.6 665.6 134.4 620.8 51.2 665.6 70.4 569.6 0 505.6 96 486.4ZM409.6 806.4 710.4 512 409.6 806.4ZM454.4 870.4 153.6 576 454.4 870.4Z" fill="#fff"></path>
  </symbol>
  <symbol id="22" viewBox="-50,-100,1200,1200">
    <path d="M716.8 2.048q67.584 27.648 124.416 74.24t97.28 106.496 63.488 131.072 23.04 148.992q0 68.608-17.92 132.096t-50.176 118.784-77.824 100.864-100.864 77.824-119.296 50.176-132.608 17.92q-77.824 0-148.992-22.528t-131.072-63.488-106.496-97.792-74.24-124.416q64.512 73.728 153.6 115.712t194.56 41.984q95.232 0 179.2-36.352t146.432-98.816 98.816-146.432 36.352-179.2q0-104.448-42.496-194.048t-115.2-153.088zM220.16 289.792l-89.088-86.016 122.88-18.432 54.272-110.592 55.296 110.592 122.88 18.432-89.088 86.016 21.504 122.88-110.592-58.368-109.568 58.368z" fill="#fff"></path>
  </symbol>
  <symbol id="23" viewBox="-100,-100,1200,1200">
    <path d="M875.52 433.152q-7.168-1.024-12.8-10.24t-8.704-33.792q-5.12-39.936-26.112-58.88t-65.024-27.136q-46.08-9.216-81.408-37.376t-58.88-52.736q-22.528-21.504-34.816-15.36t-12.288 22.528l0 44.032 0 96.256q0 57.344-0.512 123.904t-0.512 125.952l0 104.448 0 58.368q1.024 24.576-7.68 54.784t-32.768 56.832-64 45.568-99.328 22.016q-60.416 3.072-109.056-21.504t-75.264-61.952-26.112-81.92 38.4-83.456 81.92-54.272 84.992-16.896 73.216 5.632 47.616 13.312l0-289.792q0-120.832 1.024-272.384 0-29.696 15.36-48.64t40.96-22.016q21.504-3.072 35.328 8.704t28.16 32.768 35.328 47.616 56.832 52.224q30.72 23.552 53.76 33.792t43.008 18.944 39.424 20.992 43.008 39.936q23.552 26.624 28.672 55.296t0.512 52.224-14.848 38.4-17.408 13.824z" fill="#fff"></path>
  </symbol>
  <symbol id="24" viewBox="-100,-100,1200,1200">
    <path d="M659.655431 521.588015q23.970037-6.71161 46.022472-13.423221 19.17603-5.752809 39.310861-11.505618t33.558052-10.546816l-13.423221 50.816479q-5.752809 21.093633-10.546816 31.640449-9.588015 25.88764-22.531835 47.940075t-24.449438 38.35206q-13.423221 19.17603-27.805243 35.475655l-117.932584 35.475655 96.838951 17.258427q-19.17603 16.299625-41.228464 33.558052-19.17603 14.382022-43.625468 30.202247t-51.29588 29.243446-59.925094 13.902622-62.801498-4.314607q-34.516854-4.794007-69.033708-16.299625 10.546816-16.299625 23.011236-36.434457 10.546816-17.258427 25.40824-40.749064t31.161049-52.254682q46.022472-77.662921 89.168539-152.449438t77.662921-135.191011q39.310861-69.992509 75.745318-132.314607-45.06367 51.775281-94.921348 116.014981-43.146067 54.651685-95.88015 129.917603t-107.385768 164.434457q-11.505618 18.217228-25.88764 42.187266t-30.202247 50.816479-32.599251 55.131086-33.078652 55.131086q-38.35206 62.322097-78.621723 130.397004 0.958801-20.134831 7.670412-51.775281 5.752809-26.846442 19.17603-67.116105t38.35206-94.921348q16.299625-34.516854 24.928839-53.692884t13.423221-29.722846q4.794007-11.505618 7.670412-15.340824-4.794007-5.752809-1.917603-23.011236 1.917603-15.340824 11.026217-44.58427t31.161049-81.977528q22.052434-53.692884 58.007491-115.535581t81.018727-122.726592 97.797753-117.932584 107.865169-101.153558 110.262172-72.389513 106.906367-32.11985q0.958801 33.558052-6.71161 88.689139t-19.17603 117.932584-25.88764 127.520599-27.805243 117.453184z" fill="#fff"></path>
  </symbol>
</svg>